PathFileType	4	(X/Y/Z)	5_coords_data.trc
DataRate	CameraRate	NumFrames	NumMarkers	Units	OrigDataRate	OrigDataStartFrame	OrigNumFrames
30.0	30.0	6	21	m	30.0	1	70
Frame#	Time	THUMB_TIP	THUMB_IP	THUMB_MCP	THUMB_CMC	INDEX_TIP	INDEX_DIP	INDEX_PIP	INDEX_MCP	MIDDLE_TIP	MIDDLE_DIP	MIDDLE_PIP	MIDDLE_MCP	RING_TIP	RING_DIP	RING_PIP	RING_MCP	PINKY_TIP	PINKY_DIP	PINKY_PIP	PINKY_MCP	WRIST
X1	Y1	Z1	X2	Y2	Z2	X3	Y3	Z3	X4	Y4	Z4	X5	Y5	Z5	X6	Y6	Z6	X7	Y7	Z7	X8	Y8	Z8	X9	Y9	Z9	X10	Y10	Z10	X11	Y11	Z11	X12	Y12	Z12	X13	Y13	Z13	X14	Y14	Z14	X15	Y15	Z15	X16	Y16	Z16	X17	Y17	Z17	X18	Y18	Z18	X19	Y19	Z19	X20	Y20	Z20	X21	Y21	Z21
0	-2.749317978547796e-18	0.5337919543385504	-0.017055065776953593	-0.1101780383345547	0.516653588817017	-0.02175916344368295	-0.12474333587330025	0.4858490986246463	-0.01985863948608768	-0.12070707613503451	0.4755359166323154	-0.02233939280084024	-0.07737840040885507	0.5780403238425609	0.045777444617664864	-0.1404899857855989	0.5615097317979545	0.04275998448023871	-0.13373465744614407	0.5393714753232636	0.040224999048065146	-0.12209501474890137	0.5024673223745321	0.03151008657534626	-0.10271022974288486	0.5021861583772194	-0.026775250516982263	-0.10414315550281635	0.5160756554439506	-0.01670928356450302	-0.10995333454866779	0.5348360787685797	0.005027037738862483	-0.1149521747019005	0.5131283162341018	0.03101514801526095	-0.08580532082350617	0.5147053835950748	-0.02998081601220759	-0.09851269314810471	0.5278622108757606	-0.017691025643029434	-0.09943948794084695	0.5456648980308315	-0.0003260163993835663	-0.10074362099647176	0.5251344192792027	0.021610733744654054	-0.07368813598239413	0.5951496398130994	0.026034874307614808	-0.09333504987477559	0.5798627317691506	0.02023587109543551	-0.08826730834614721	0.5613470175440496	0.012689979068668478	-0.08186107237993667	0.5309780952260765	-0.0029965227629146773	-0.07034822440332109	0.4622830810018608	-0.023011742144276925	-0.051989820119430985
1	0.03333333333333339	0.534677703246052	-0.017212799259022638	-0.11035781967518286	0.5172095934514952	-0.021710599483871496	-0.12459280943080471	0.4863683521391381	-0.01993932713728469	-0.12078486660203465	0.47466251553192795	-0.022571689103411285	-0.07782053186024462	0.5775614313677639	0.04650463763066387	-0.14053311927249526	0.5610740788447516	0.04376061659479108	-0.13355905622885975	0.5389061098794632	0.04108952475751304	-0.12200672947833723	0.50203665351802	0.03165254965970471	-0.1028959267056908	0.5017530938027793	-0.026054948475960793	-0.10391173217328437	0.5158320358796495	-0.01632377308496502	-0.10983521218977864	0.5347946728837035	0.005223118948336658	-0.11489084187931563	0.5131168319797385	0.03112555962871666	-0.08564562515004909	0.5147893903856728	-0.02924583300599587	-0.09830005751619314	0.5280648616894376	-0.017092265816079866	-0.09932605275161743	0.5459878130217095	0.00014417727704518768	-0.10068723754380253	0.5252063601358541	0.021621820085134746	-0.07345558483301218	0.5948869218861925	0.026715718504268904	-0.09343238429205458	0.5798150785975107	0.020463841759227386	-0.08825999828110898	0.5612967696689718	0.01290380841626071	-0.0818779806314601	0.5309082912207947	-0.0026047062494664597	-0.07017713444549512	0.4622830810018609	-0.023011742144276925	-0.051989820119430985
2	0.06666666666666676	0.5353031353278832	-0.017271211437817735	-0.11043652663674305	0.5176012146208847	-0.021615667168367325	-0.12442822802322316	0.4867324094309673	-0.01996252147859079	-0.12079450053271142	0.4739897103675459	-0.02272575888095607	-0.07813447076669686	0.5771648569737247	0.047150732046596255	-0.1405110613661661	0.5607147819092618	0.04460225083488856	-0.13337661857873612	0.5385256087837911	0.04180899561509016	-0.12189410342372943	0.5016936818815563	0.03180131228705885	-0.10300253045919626	0.5014163284622617	-0.02541464280646516	-0.1037182284236387	0.5156530162408166	-0.015971168403356883	-0.10972967685923102	0.5347651861145006	0.005436816853681636	-0.11481226281068042	0.5130906673691064	0.031249428211745256	-0.08548527433533365	0.5148672552794181	-0.028628053427876166	-0.09812083108292449	0.5282285823649613	-0.016574549132442162	-0.09921077269286827	0.5462329460015308	0.0005748101841405728	-0.10059725892537091	0.5252446200646617	0.021675718172480984	-0.07323007619796279	0.5946604018531144	0.027318485905526324	-0.09344144516415404	0.5797695643923658	0.020705383914773445	-0.08819455639294294	0.5612520496431946	0.01312236616663326	-0.0818375517252064	0.5308489479890768	-0.0022684622945606248	-0.0700198844389997	0.4622830810018609	-0.023011742144276925	-0.051989820119430985
3	0.10000000000000014	0.5357236466879601	-0.017244064752598598	-0.11046073892679406	0.517866639822728	-0.021481814358561446	-0.12428711893358592	0.4869784392098234	-0.01993337818926777	-0.12077408487075812	0.4735071186537728	-0.022809812398624674	-0.07834603225559128	0.576854791212718	0.047728263524802805	-0.14043137421384266	0.5604330951081417	0.045303394883726256	-0.13318928134489494	0.5382298545722308	0.04240165282057995	-0.12176099032202298	0.5014335885887182	0.0319532739391839	-0.10303928413852048	0.5011657652633121	-0.02485924090634911	-0.10356034970978711	0.5155299530640798	-0.01565287287783157	-0.1096359481616076	0.5347460099901769	0.005661431676895812	-0.11472054525098736	0.5130525731028999	0.03138235513920273	-0.08532706275462626	0.514934986107833	-0.028121754856791692	-0.0979732324948448	0.5283550676456815	-0.016136821894017994	-0.09909697329917758	0.5464077924405495	0.000961722933406961	-0.10048220658830456	0.5252535138211533	0.021764817304898265	-0.07301497894036416	0.5944793518480302	0.027838833798077667	-0.09337344228116234	0.579728469994419	0.02095519116456146	-0.08807939386479521	0.5612141847292508	0.013342995004082092	-0.08174790669870555	0.530799878793091	-0.001984908995616541	-0.06987740526036243	0.4622830810018608	-0.023011742144276925	-0.051989820119430985
4	0.13333333333333353	0.5359823399146926	-0.017146651012455605	-0.11046050623793074	0.5180344339620045	-0.021317713899532686	-0.12418912256680797	0.48713390162380865	-0.019859126156719642	-0.1207467944283785	0.47319634815156386	-0.02283366162154954	-0.07847639412300181	0.5766290216940158	0.048243637595932864	-0.14030403567129524	0.5602258057052264	0.045878957917750096	-0.1330004204538351	0.5380144109908128	0.04288232083174681	-0.12161253460898618	0.5012491671875018	0.03210503550154031	-0.10301675382423763	0.5009909716398905	-0.024390919459695015	-0.1034355744611287	0.515454252421717	-0.01536963444081807	-0.10955357459468773	0.5347352388301463	0.005890280884834287	-0.11462004412129678	0.5130054500603755	0.03151991132785659	-0.0851737159227717	0.5149911213054127	-0.02771959633623161	-0.0978560872313286	0.5284474371782562	-0.015776121612580907	-0.09898788874033135	0.5465207645398773	0.0013024760030425075	-0.10035035729530953	0.5252378713199967	0.021880894993187905	-0.07281332836956683	0.5943476601223929	0.028275829836239053	-0.09324169734994597	0.5796932313175871	0.021206769891028654	-0.08792416898651448	0.5611837410150061	0.013561647725231551	-0.08161838633812746	0.5307606480422463	-0.001750805147270662	-0.06975046099297061	0.4622830810018608	-0.023011742144276925	-0.051989820119430985
5	0.1666666666666669	0.5361129523767946	-0.016994839331909095	-0.11045291607108207	0.5181257395048381	-0.0211324956804938	-0.12414013540299686	0.4872188219434339	-0.01974831780272923	-0.12072450977139276	0.47303383252700626	-0.022807999436499027	-0.07854258919449383	0.5764804967536037	0.04869879858049392	-0.1401407581712487	0.560086368538762	0.04634121872747943	-0.13281447826177262	0.537871618834143	0.04326335028573197	-0.12145483678783393	0.5011313305438432	0.03225308482687084	-0.10294642343414352	0.5008813807564405	-0.024009308209905766	-0.10334120262367169	0.5154174064568895	-0.015121657584331372	-0.10948234447137523	0.5347307857068335	0.006116809857118322	-0.1145152792699107	0.5129522983396012	0.03165771094360492	-0.08502786194174158	0.5150359521745748	-0.027412903056057702	-0.09776844026195575	0.5285097938768936	-0.015487904402043062	-0.09888647285656163	0.5465809095177095	0.0015961266866982848	-0.10020959048367414	0.525202900935805	0.022015394000511446	-0.07262780110301476	0.5942644598528114	0.028631116396302503	-0.0930608447024533	0.5796646763376403	0.02145276926302253	-0.08773941127298465	0.5611607121252942	0.013773329002797596	-0.08145916249464372	0.5307306019405904	-0.001562618203015731	-0.0696396629939329	0.4622830810018609	-0.023011742144276925	-0.051989820119430985
